<?xml version="1.0" encoding="utf-8"?>
<!-- Generator: Adobe Illustrator 16.0.0, SVG Export Plug-In . SVG Version: 6.00 Build 0)  -->
<!DOCTYPE svg PUBLIC "-//W3C//DTD SVG 1.1//EN" "http://www.w3.org/Graphics/SVG/1.1/DTD/svg11.dtd">
<svg version="1.1" id="Layer_1" xmlns="http://www.w3.org/2000/svg" xmlns:xlink="http://www.w3.org/1999/xlink" x="0px" y="0px"
	 width="300px" height="329px" viewBox="0 0 300 329" enable-background="new 0 0 300 329" xml:space="preserve">
<g>
	<path fill-rule="evenodd" clip-rule="evenodd" fill="#EF5D26" d="M142.383,1.413c3.132,0.765,4.955,3.568,4.846,6.39
		c-0.131,3.383-2.962,6.042-6.402,6.005c-3.354-0.035-6.106-2.785-6.151-6.147c-0.04-3.037,1.841-5.445,4.88-6.25
		c0.168-0.13,0.416,0.022,0.571-0.158c0.562,0,1.125,0,1.686,0C141.968,1.433,142.217,1.278,142.383,1.413z"/>
	<path fill-rule="evenodd" clip-rule="evenodd" fill="#0D72B9" d="M183.435,1.401c3.036,0.65,5.059,3.056,5.104,6.075
		c0.045,2.979-1.917,5.489-4.84,6.195c-3.205,0.772-6.466-1.104-7.432-4.278c-0.973-3.197,0.732-6.615,3.865-7.735
		c0.321-0.115,0.662-0.174,0.993-0.258c0.126-0.075,0.299-0.02,0.406-0.148c0.5,0,0.999,0,1.501,0
		C183.138,1.38,183.311,1.325,183.435,1.401z"/>
	<path fill-rule="evenodd" clip-rule="evenodd" fill="#00A66F" d="M2.004,173.791c0.518-1.765,2.773-3.03,4.88-1.956
		c1.302,0.663,2.077,2.176,1.852,3.577c-0.238,1.482-1.371,2.669-2.78,2.911c-1.583,0.273-3.03-0.433-3.768-1.806
		c-0.153-0.283-0.12-0.699-0.521-0.831c0-0.438,0-0.876,0-1.312C1.803,174.192,1.933,174.009,2.004,173.791z"/>
	<path fill-rule="evenodd" clip-rule="evenodd" fill="#8ECFB4" d="M2.004,173.791c0.036,0.279-0.074,0.476-0.336,0.584
		c0-0.124,0-0.25,0-0.374C1.78,173.931,1.892,173.859,2.004,173.791z"/>
	<path fill-rule="evenodd" clip-rule="evenodd" fill="#FBD9CB" d="M142.383,1.413c-0.212,0.027-0.428,0.063-0.57-0.16
		c0.188,0,0.375,0,0.562,0C142.374,1.306,142.377,1.36,142.383,1.413z"/>
	<path fill-rule="evenodd" clip-rule="evenodd" fill="#F9D2C3" d="M140.127,1.252c-0.146,0.212-0.356,0.194-0.571,0.158
		c0.005-0.052,0.009-0.105,0.01-0.158C139.753,1.252,139.941,1.252,140.127,1.252z"/>
	<path fill-rule="evenodd" clip-rule="evenodd" fill="#7EB5DA" d="M181.532,1.252c-0.086,0.185-0.233,0.197-0.406,0.148
		c-0.002-0.052,0.008-0.102,0.031-0.148C181.283,1.252,181.407,1.252,181.532,1.252z"/>
	<path fill-rule="evenodd" clip-rule="evenodd" fill="#83B8DB" d="M183.435,1.401c-0.17,0.048-0.318,0.038-0.401-0.149
		c0.122,0,0.247,0,0.374,0C183.427,1.3,183.437,1.35,183.435,1.401z"/>
	<path fill-rule="evenodd" clip-rule="evenodd" fill="#0D72B9" d="M149.657,178.507c0.909-3.437,1.812-6.872,2.732-10.306
		c1.987-7.408,4.013-14.805,5.829-22.257c1.684-6.912,3.119-13.874,4.164-20.91c1.084-7.299,1.666-14.635,1.523-22.019
		c-0.073-3.873-0.41-7.723-0.868-11.57c-0.771-6.507-3.333-12.246-7.282-17.387c-2.731-3.554-6.181-6.15-10.61-7.27
		c-0.084-0.021-0.159-0.086-0.233-0.139c-0.022-0.015-0.025-0.055-0.077-0.178c8.578-2.293,16.068-0.115,22.848,5.382
		c4.073-6.986,9.334-12.619,17.01-15.558c0.22,0.201,0.092,0.305,0.045,0.395c-2.249,4.426-3.696,9.124-4.702,13.967
		c-1.154,5.553-1.624,11.167-1.517,16.839c0.104,5.47-0.259,10.918-0.856,16.354c-1.392,12.701-4.425,25.036-8.211,37.209
		c-2.991,9.62-6.347,19.116-9.54,28.667c-2.381,7.127-4.725,14.266-6.566,21.56c-0.121,0.483-0.225,0.971-0.336,1.457
		c-0.08,0.204-0.057,0.408-0.011,0.614c-0.025,1.134-0.403,2.201-0.634,3.296c-1.307,6.228-2.271,12.503-2.834,18.841
		c-0.069,0.776-0.18,1.544-0.129,2.325c-0.22,2.676-0.328,5.351-0.37,8.036c-0.406,25.506-0.052,51.013-0.175,76.517
		c-0.003,0.593,0.056,1.189-0.095,1.772c-0.202,0.513-0.583,0.399-0.908,0.195c-1.438-0.901-2.824-0.646-4.209,0.115
		c-0.254,0.14-0.541,0.359-0.833,0.036c-0.059-0.103-0.095-0.212-0.114-0.329c-0.085-0.496-0.065-0.995-0.065-1.494
		c-0.001-22.206-0.001-44.414,0.001-66.621c0-0.56-0.024-1.123,0.078-1.679c0.101-0.36,0.139-0.727,0.151-1.104
		c0.141-4.436,0.212-8.871,0.171-13.31c-0.001-0.216-0.03-0.436,0.061-0.644c0.012-3.375,0.291-6.732,0.656-10.082
		c0.521-4.775,1.274-9.517,2.181-14.232c0.151-0.796,0.385-1.576,0.417-2.393c0.012-2.012,0.666-3.906,1.073-5.845
		c0.538-2.556,1.164-5.092,1.841-7.613C149.327,178.894,149.56,178.741,149.657,178.507z"/>
	<path fill-rule="evenodd" clip-rule="evenodd" fill="#F8AE41" d="M155.103,233.387c0.268-4.329,0.504-8.657,0.809-12.982
		c0.268-3.764,0.567-7.525,0.93-11.279c0.634-6.587,1.768-13.095,3.229-19.544c1.219-5.382,2.541-10.736,4.137-16.021
		c1.543-5.112,3.494-10.072,5.627-14.965c2.045-4.695,4.382-9.245,6.738-13.788c1.581-3.047,3.064-6.142,4.121-9.419
		c0.866-2.687,1.424-5.426,1.398-8.264c-0.021-2.592-0.562-5.073-1.589-7.45c-0.075-0.172-0.151-0.343-0.221-0.516
		c-0.012-0.025-0.002-0.058-0.002-0.089c1.937,0.983,5.704,6.174,7.5,10.331c1.725,3.992,2.604,8.176,2.801,12.623
		c6.369-1.971,12.756-2.622,19.26-1.288c1.606,0.33,3.172,0.796,4.875,1.541c-1.196,0.09-2.177,0.035-3.156,0.172
		c-3.278,0.459-6.225,1.748-9,3.487c-2.738,1.716-5.179,3.8-7.456,6.083c-5.697,5.719-10.463,12.148-14.477,19.135
		c-5.679,9.883-9.734,20.416-12.587,31.435c-1.563,6.038-2.872,12.131-3.869,18.288c-0.538,3.321-0.993,6.654-1.4,9.998
		c-0.421,3.435-0.732,6.882-1.049,10.327c-0.171,1.862-0.278,3.731-0.4,5.601c-0.542,8.257-0.56,16.527-0.664,24.798
		c-0.105,8.21-0.062,16.422-0.163,24.63c-0.033,2.839-0.104,5.679-0.158,8.517c-0.221,0.13-0.302-0.103-0.448-0.169
		c-0.11-0.08-0.224-0.163-0.335-0.245c-0.113-0.077-0.231-0.144-0.354-0.206c-0.124-0.063-0.252-0.124-0.379-0.18
		c-0.103-0.038-0.208-0.072-0.314-0.102c-0.113-0.023-0.225-0.053-0.338-0.083c-0.318-0.086-0.641-0.07-0.967-0.059
		c-0.257,0.008-0.505,0.072-0.749,0.153c-0.731,0.125-1.236,0.864-2.054,0.76c-0.134-0.127-0.141-0.29-0.13-0.458
		c0.059-3.9-0.312-7.789-0.204-11.688c0.427-15.468,0.036-30.938,0.224-46.402c0.036-2.858,0.054-5.735,0.412-8.586
		c0.208-0.614,0.153-1.251,0.153-1.883C154.933,234.863,154.655,234.082,155.103,233.387z"/>
	<path fill-rule="evenodd" clip-rule="evenodd" fill="#00A66F" d="M142.972,234.31c-0.007,0.407-0.018,0.812-0.018,1.218
		c-0.001,22.66-0.001,45.32-0.002,67.98c0,0.311-0.009,0.623-0.014,0.935c-0.348,0.077-0.582-0.162-0.846-0.312
		c-1.111-0.63-2.192-0.561-3.248,0.129c-0.333,0.219-0.629,0.534-1.09,0.393c-0.044-5.246-0.088-10.49-0.131-15.736
		c-0.058-7.12-0.083-14.239-0.182-21.355c-0.07-5.026-0.073-10.055-0.344-15.075c-0.268-4.957-0.578-9.908-1.04-14.852
		c-0.66-7.056-1.579-14.076-2.874-21.04c-2.344-12.612-5.732-24.91-11.054-36.627c-3.277-7.215-7.502-13.809-12.797-19.712
		c-4.538-5.058-9.878-8.959-16.327-11.244c-1.64-0.582-3.298-1.11-5.065-1.384c1.088-0.774,3.814-1.528,7.69-1.999
		c2.672-0.324,5.359-0.238,8.037,0.07c2.669,0.307,5.278,0.89,7.922,1.739c0.49-9.037,3.592-16.844,10.254-23.157
		c0.13,0.4-0.066,0.601-0.155,0.819c-1.237,3.042-1.591,6.203-1.319,9.457c0.435,5.176,2.124,9.981,4.3,14.642
		c0.489,1.046,1,2.082,1.543,3.1c4.4,8.251,7.461,17.004,9.8,26.03c1.623,6.255,2.779,12.604,3.771,18.983
		c0.735,4.719,1.261,9.462,1.698,14.217c0.386,4.196,0.673,8.399,0.924,12.605c0.099,1.65,0.236,3.3,0.355,4.948
		c0.33,0.594,0.107,1.237,0.173,1.856C142.889,232.061,143.164,233.183,142.972,234.31z"/>
	<path fill-rule="evenodd" clip-rule="evenodd" fill="#EF5D26" d="M149.484,179.118c-0.448,1.9-0.908,3.797-1.342,5.7
		c-0.559,2.449-1.097,4.903-1.647,7.354c-0.032,0.148-0.097,0.288-0.147,0.434c-0.61-2.224-1.186-4.458-1.837-6.668
		c-1.668-5.652-3.788-11.15-5.802-16.684c-2.123-5.828-4.25-11.652-5.929-17.629c-1.466-5.227-2.688-10.505-3.465-15.879
		c-0.393-2.716-0.625-5.451-0.817-8.189c-0.334-4.727-0.626-9.46-1.672-14.104c-0.676-2.996-1.657-5.875-3.207-8.544
		c-1.643-2.83-3.854-5.123-6.538-6.974c0.055-0.464,0.353-0.245,0.586-0.207c1.623,0.217,3.137,0.789,4.621,1.444
		c3.431,1.516,6.443,3.666,9.22,6.16c1.557,1.399,3.011,2.902,4.397,4.47c0.162,0.184,0.277,0.421,0.594,0.517
		c3.925-3.859,8.686-6.263,13.996-7.637c2.271-0.589,4.583-0.981,6.937-1.044c0.025,0.233-0.087,0.253-0.159,0.291
		c-6.035,3.177-10.114,8.102-12.756,14.299c-1.355,3.179-2.124,6.513-2.488,9.943c-0.414,3.911-0.683,7.829-0.595,11.77
		c0.129,5.785,0.849,11.496,1.948,17.174c1.321,6.834,3.301,13.499,5.071,20.218c0.294,1.115,0.59,2.229,0.886,3.343
		C149.459,178.802,149.405,178.98,149.484,179.118z"/>
	<path fill-rule="evenodd" clip-rule="evenodd" fill="#00A66F" d="M78.455,137.692c-2.042-0.294-4.033-0.823-6.004-1.406
		c-6.908-2.044-13.436-4.968-19.71-8.495c-7.367-4.142-14.222-9.017-20.801-14.299c-4.845-3.889-9.504-7.996-14.176-12.089
		c-2.769-2.427-5.515-4.883-8.383-7.196c-1.215-0.979-2.469-1.909-3.761-2.784c-0.173-0.117-0.394-0.185-0.542-0.536
		c5.929,0.307,11.771,0.64,17.399,2.832c-0.06-1.435-0.086-2.773-0.005-4.11c0.161-2.631,0.647-5.195,1.682-7.636
		c0.75-1.77,1.771-3.356,3.247-4.767c0.273,0.737,0.28,1.443,0.4,2.119c1.209,6.817,3.647,13.196,6.78,19.343
		c5.949,11.67,14.206,21.378,24.772,29.098c5.936,4.335,12.392,7.685,19.488,9.725C78.863,137.851,78.629,137.716,78.455,137.692z"
		/>
	<path fill-rule="evenodd" clip-rule="evenodd" fill="#F8AE41" d="M203.471,181.896c4.444-1.766,9.034-3.024,13.717-3.968
		c3.241-0.651,6.51-1.151,9.799-1.433c4.26-0.363,8.526-0.567,12.807-0.312c2.055,0.123,4.108,0.219,6.159,0.402
		c2.237,0.2,4.466,0.473,6.68,0.82c6.749,1.062,13.382,2.636,19.938,4.547c4.547,1.324,9.065,2.739,13.65,3.931
		c0.803,0.208,1.61,0.393,2.432,0.674c-2.684,1.159-5.467,1.978-8.253,2.78c-2.777,0.802-5.579,1.503-8.617,1.623
		c2.068,3.971,3.24,7.992,2.796,12.354c-0.154,1.518-0.521,2.988-1.256,4.405c-0.115-0.132-0.185-0.19-0.227-0.266
		c-3.278-6.068-7.893-10.958-13.357-15.093c-7.8-5.899-16.551-9.624-26.141-11.46c-5.396-1.032-10.834-1.34-16.301-1.051
		c-4.426,0.236-8.798,0.925-13.079,2.119c-0.178,0.05-0.364,0.075-0.547,0.113C203.471,182.166,203.438,182.067,203.471,181.896z"/>
	<path fill-rule="evenodd" clip-rule="evenodd" fill="#00A66F" d="M106.925,202.695c-2.22-1.332-4.455-2.636-6.793-3.754
		c-6.552-3.135-13.414-5.229-20.638-6.066c-9.838-1.142-19.369,0.002-28.477,4.012c-4.139,1.821-7.94,4.195-11.271,7.289
		c-1.352,1.257-2.537,2.658-3.717,4.115c-0.019-2.799,0.347-5.546,1.052-8.243c0.706-2.699,1.667-5.294,3.514-7.586
		c-1.162-0.301-2.233-0.562-3.295-0.854c-2.988-0.816-5.889-1.859-8.584-3.409c-1.548-0.89-2.959-1.96-4.194-3.472
		c0.825-0.074,1.547-0.142,2.268-0.202c3.513-0.305,7.024-0.641,10.541-0.904c5.42-0.404,10.847-0.573,16.284-0.329
		c3.589,0.161,7.161,0.456,10.716,0.979c8.475,1.248,16.625,3.603,24.436,7.127c6.37,2.871,12.352,6.396,17.887,10.667
		c0.172,0.133,0.33,0.284,0.495,0.426C107.169,202.664,107.119,202.757,106.925,202.695z"/>
	<path fill-rule="evenodd" clip-rule="evenodd" fill="#EF5D26" d="M113.346,112.727c-1.993-3.21-4.08-6.355-6.389-9.349
		c-5.601-7.262-11.942-13.768-19.489-19.036c-5.147-3.593-10.647-6.482-16.701-8.245c-3.402-0.99-6.869-1.571-10.419-1.552
		c-2.606,0.014-5.158,0.389-7.619,1.29c-0.167,0.061-0.322,0.211-0.641,0.071c3.35-4.479,7.147-8.303,12.726-9.955
		c-0.08-0.362-0.359-0.581-0.561-0.839c-1.94-2.489-3.779-5.045-5.301-7.819c-1.056-1.925-1.918-3.921-2.303-6.099
		c-0.057-0.329-0.142-0.658-0.04-1.018c0.122,0.032,0.219,0.036,0.292,0.08c5.797,3.442,11.558,6.939,16.913,11.058
		c7.563,5.815,14.281,12.487,20.251,19.921c7.419,9.238,13.65,19.227,18.882,29.848c0.206,0.418,0.384,0.852,0.576,1.277
		C113.641,112.567,113.683,112.738,113.346,112.727z"/>
	<path fill-rule="evenodd" clip-rule="evenodd" fill="#00A66F" d="M124.023,211.092c-1.861-5.613-5.086-10.392-9.035-14.727
		c-5.759-6.322-12.568-11.276-20.048-15.353c-7.21-3.93-14.785-6.937-22.792-8.784c-3.654-0.844-7.369-1.312-11.132-1.281
		c-0.243,0.003-0.486,0-0.752,0c0.585-0.817,3.975-2.923,7.155-4.467c2.536-1.23,5.153-2.209,8.018-2.587
		c-2.992-5.235-5.312-10.564-4.265-16.948c0.487,0.553,0.831,0.947,1.179,1.338c2.33,2.613,4.908,4.975,7.449,7.376
		c7.438,7.032,15.17,13.752,22.304,21.11c5.16,5.321,10.051,10.852,14.211,17.003c2.631,3.889,4.905,7.964,6.553,12.37
		c0.557,1.49,1.034,3.005,1.346,4.568C124.299,210.913,124.38,211.111,124.023,211.092z"/>
	<path fill-rule="evenodd" clip-rule="evenodd" fill="#EF5D26" d="M154.925,237.339c-0.033,2.146-0.14,4.293-0.222,6.438
		c-0.347,9.135-0.081,18.268-0.146,27.402c-0.043,5.958,0.051,11.918-0.049,17.873c-0.048,2.833-0.195,5.669-0.102,8.499
		c0.066,1.992,0.136,3.982,0.134,5.975c0,0.301,0.098,0.63-0.158,0.89c-0.314,0.126-0.49-0.133-0.717-0.252
		c-0.521-0.354-1.126-0.432-1.721-0.541c-0.993-0.159-1.842,0.226-2.669,0.699c-0.154,0.094-0.311,0.179-0.495,0.19
		c-0.092-0.008-0.173-0.044-0.242-0.104c0.004-6.866,0.033-13.729,0.006-20.592c-0.066-15.942,0.072-31.886,0.079-47.828
		c0.002-3.991-0.031-7.986,0.116-11.978c0.078-2.121,0.138-4.24,0.399-6.346c0.688-4.557,1.991-8.975,2.996-13.46
		c0.408-1.821,0.812-3.646,1.304-5.447c0.103-0.38,0.125-0.818,0.569-1.011c0.422,1.376,0.552,2.801,0.728,4.219
		c0.479,3.852,0.284,7.721,0.265,11.586c-0.032,6.364-0.052,12.727-0.075,19.089c0,0.25,0.016,0.497,0.023,0.747
		c0.156,0.743,0.027,1.494,0.069,2.239C154.968,236.197,155.122,236.778,154.925,237.339z"/>
	<path fill-rule="evenodd" clip-rule="evenodd" fill="#F8AE41" d="M188.447,183.916c1.267-2.83,2.857-5.474,4.602-8.027
		c6.456-9.451,14.888-16.756,24.653-22.597c6.282-3.757,12.945-6.725,19.724-9.452c4.077-1.641,8.208-3.153,12.247-4.889
		c1.201-0.516,2.382-1.081,3.774-1.714c-1.501,2.621-3.077,4.979-4.702,7.304c-1.625,2.326-3.313,4.604-5.494,6.51
		c5.178,2.77,9.198,6.45,10.691,12.563c-0.754-0.336-1.312-0.587-1.872-0.833c-3.595-1.58-7.367-2.504-11.243-3.043
		c-2.351-0.327-4.715-0.524-7.088-0.506c-9.183,0.07-17.836,2.214-25.908,6.641c-4.888,2.682-9.226,6.06-13.044,10.112
		c-2.338,2.485-4.403,5.183-6.155,8.114C188.463,184.148,188.376,184.112,188.447,183.916z"/>
	<path fill-rule="evenodd" clip-rule="evenodd" fill="#0D72B9" d="M174.427,18.895c2.67-0.324,5.34-0.521,8.029-0.244
		c2.402,0.248,4.755,0.668,6.921,1.808c0.079,0.041,0.174,0.052,0.325,0.096c0.279-1.318,0.527-2.621,0.834-3.91
		c0.643-2.707,1.487-5.344,2.777-7.823c0.564-1.082,1.221-2.105,2.01-3.037c0.237-0.28,0.436-0.609,0.848-0.792
		c0.258,0.523,0.203,1.098,0.295,1.631c0.558,3.161,1.079,6.33,1.604,9.497c0.568,3.417,0.998,6.849,1.307,10.299
		c0.314,3.514,0.513,7.034,0.482,10.562c-0.127,15.053-3.238,29.452-9.518,43.148c-0.116,0.254-0.255,0.499-0.385,0.748
		c-0.187,0.039-0.279-0.017-0.216-0.222c0.862-2.703,1.669-5.421,2.242-8.201c1.252-6.083,1.756-12.224,1.316-18.423
		c-0.475-6.683-1.948-13.127-4.86-19.197c-2.289-4.776-5.269-9.053-9.331-12.51c-1.48-1.259-3.082-2.334-4.858-3.139
		C174.201,19.022,174.288,18.942,174.427,18.895z"/>
	<path fill-rule="evenodd" clip-rule="evenodd" fill="#F8AE41" d="M220.688,137.272c2.131-1.534,4.398-2.845,6.702-4.098
		c6.536-3.556,13.364-6.433,20.414-8.812c6.679-2.254,13.469-4.102,20.3-5.828c4.743-1.198,9.497-2.348,14.19-3.733
		c1.767-0.521,3.506-1.112,5.201-1.835c0.218-0.094,0.426-0.26,0.829-0.197c-1.505,2.322-3.111,4.475-4.789,6.578
		c-1.696,2.124-3.532,4.111-5.709,5.777c5.359,4.663,7.74,8.633,8.152,13.541c-0.208,0.188-0.347-0.024-0.478-0.111
		c-3.782-2.496-7.902-4.245-12.221-5.554c-4.159-1.26-8.414-2.028-12.73-2.507c-3.704-0.411-7.417-0.485-11.127-0.298
		c-9.826,0.496-19.234,2.709-28.077,7.12c-0.138,0.069-0.285,0.122-0.428,0.182C220.706,137.561,220.652,137.462,220.688,137.272z"
		/>
	<path fill-rule="evenodd" clip-rule="evenodd" fill="#EF5D26" d="M130.591,78.436c-1.092-3.419-1.917-6.907-2.623-10.422
		c-0.928-4.62-1.584-9.282-2.037-13.971c-0.645-6.69-0.756-13.398-0.539-20.109c0.126-3.961,0.352-7.922,0.718-11.867
		c0.306-3.292,0.548-6.589,0.835-9.883c0.158-1.8,0.265-3.612,0.197-5.424c-0.007-0.181-0.074-0.369,0.101-0.66
		c1.569,2.296,3.001,4.606,4.369,6.958c1.366,2.345,2.569,4.769,3.489,7.382c4.814-2.969,9.875-4.167,15.387-2.67
		c0.047,0.346-0.217,0.398-0.381,0.509c-4.157,2.798-7.424,6.45-10.191,10.584c-3.309,4.942-5.661,10.323-7.34,16.009
		c-1.49,5.045-2.386,10.208-2.68,15.451c-0.318,5.647-0.188,11.294,0.82,16.887c0.038,0.213,0.041,0.434,0.061,0.651
		C130.813,78.084,131.037,78.369,130.591,78.436z"/>
	<path fill-rule="evenodd" clip-rule="evenodd" fill="#F8AE41" d="M262.688,73.413c-0.556,2.593-1.32,5.127-2.158,7.64
		c-0.781,2.341-1.68,4.633-3.015,6.726c-0.03,0.046-0.024,0.116-0.048,0.233c5.075,2.029,9.339,5.017,11.704,10.195
		c-0.294,0.168-0.494,0.052-0.702,0c-4.474-1.14-9.008-1.538-13.624-1.296c-3.249,0.169-6.46,0.553-9.632,1.221
		c-7.392,1.558-14.305,4.331-20.651,8.443c-5.179,3.356-9.681,7.449-13.247,12.523c-0.175,0.04-0.27,0-0.2-0.203
		c1.451-2.917,3.294-5.579,5.294-8.136c3.835-4.911,8.232-9.271,12.987-13.286c5.392-4.552,11.105-8.669,16.964-12.591
		c3.781-2.53,7.562-5.063,11.248-7.734c1.694-1.227,3.299-2.562,4.836-3.978C262.635,73.141,262.733,73.204,262.688,73.413z"/>
	<path fill-rule="evenodd" clip-rule="evenodd" fill="#0D72B9" d="M195.793,114.228c-0.149-3.504,0.139-6.982,0.632-10.448
		c1.486-10.468,5.273-20.164,9.927-29.57c1.783-3.604,3.555-7.215,5.326-10.825c0.991-2.016,1.859-4.083,2.524-6.231
		c0.312,0.067,0.272,0.32,0.324,0.514c0.872,3.35,1.647,6.721,2.166,10.145c0.179,1.17,0.289,2.353,0.271,3.542
		c-0.014,0.984-0.106,0.911,0.892,0.891c3.736-0.073,7.232,0.799,10.459,2.7c0.993,0.585,1.921,1.261,2.748,2.054
		c-0.098,0.273-0.32,0.218-0.478,0.236c-5.493,0.6-10.406,2.715-14.953,5.756c-8.328,5.573-14.036,13.185-17.378,22.588
		c-1.185,3.332-1.885,6.784-2.132,10.32c-0.469-0.071-0.196-0.435-0.245-0.66C195.811,114.911,195.941,114.557,195.793,114.228z"/>
	<path fill-rule="evenodd" clip-rule="evenodd" fill="#EF5D26" d="M117.08,89.877c-7.313-6.783-12.87-14.802-16.875-23.922
		c-2.564-5.84-4.438-11.912-6.174-18.035c-1.098-3.866-2.101-7.765-3.549-11.524c-0.189-0.489-0.387-0.975-0.519-1.531
		c1.102,0.611,2.119,1.332,3.132,2.055c1.066,0.762,2.129,1.53,3.171,2.325c1.017,0.775,2.02,1.57,3.005,2.387
		c0.982,0.815,1.907,1.696,2.742,2.731c3.836-3.788,8.357-5.816,13.771-5.828c-0.035,0.148-0.031,0.221-0.065,0.256
		c-3.87,4.031-6.169,8.902-7.434,14.268c-2.623,11.135-0.645,21.535,5.218,31.27c1.129,1.875,2.444,3.619,3.777,5.349
		C117.331,89.862,117.258,89.922,117.08,89.877z"/>
	<path fill-rule="evenodd" clip-rule="evenodd" fill="#F8AE41" d="M188.838,193.515c3.978-0.402,7.97-0.581,11.963-0.521
		c4.182,0.063,8.359,0.258,12.518,0.715c4.771,0.525,9.515,1.247,14.235,2.135c4.07,0.763,8.126,1.621,12.223,2.252
		c1.013,0.154,2.042,0.212,3.064,0.314c0.052,0.152-0.059,0.225-0.167,0.28c-3.583,1.894-7.145,3.836-10.902,5.38
		c-0.577,0.237-1.159,0.482-1.762,0.623c-0.529,0.125-0.633,0.362-0.508,0.853c0.343,1.339,0.423,2.712,0.353,4.087
		c-0.156,3.205-1.028,6.199-2.674,8.962c-0.088,0.147-0.12,0.371-0.41,0.391c-0.359-1.628-0.832-3.225-1.571-4.733
		c-1.655-3.383-3.952-6.274-6.753-8.773c-6.193-5.521-13.521-8.721-21.542-10.488c-2.897-0.639-5.833-1.016-8.796-1.158
		C188.189,193.354,188.642,193.729,188.838,193.515z"/>
	<path fill-rule="evenodd" clip-rule="evenodd" fill="#00A66F" d="M49.226,106.724c2.21-2.512,4.55-4.89,7.21-6.934
		c0.917-0.704,1.861-1.374,2.916-1.854c0.416-0.189,0.533-0.389,0.391-0.847c-0.586-1.885-0.858-3.826-1.015-5.792
		c-0.211-2.642,0.065-5.232,0.693-7.794c0.035-0.146,0.121-0.278,0.221-0.502c1.29,2.346,2.845,4.408,4.449,6.441
		c3.23,4.099,6.803,7.899,10.29,11.773c3.676,4.084,7.364,8.157,10.573,12.631c1.73,2.413,3.311,4.917,4.476,7.661
		c0.133,0.315,0.232,0.643,0.348,0.965c-0.076,0.075-0.152,0.075-0.229,0c-3.028-4.852-7.395-8.202-12.313-10.911
		c-4.929-2.714-10.19-4.501-15.758-5.298c-3.815-0.546-7.639-0.606-11.399,0.48c-0.209,0.061-0.416,0.128-0.624,0.193
		C49.257,106.996,49.204,106.899,49.226,106.724z"/>
	<path fill-rule="evenodd" clip-rule="evenodd" fill="#00A66F" d="M14.974,125.268c5.366,2.712,10.983,4.875,16.388,7.504
		c8.243,4.009,16.065,8.671,23.103,14.584c1.504,1.264,2.961,2.581,4.344,3.978c0.048,0.161,0.023,0.25-0.169,0.171
		c-5.637-3.979-11.904-6.363-18.728-7.238c-4.21-0.54-8.398-0.338-12.512,0.831c-3.743,1.064-7.046,2.824-9.531,5.91
		c-0.056,0.069-0.109,0.156-0.269,0.126c0.08-1.048,0.333-2.07,0.564-3.093c0.528-2.344,1.221-4.638,2.226-6.828
		c0.443-0.966,0.927-1.912,1.618-2.725c0.304-0.357,0.301-0.581-0.021-0.937c-1.107-1.228-2.156-2.504-3.099-3.866
		c-1.713-2.474-3.157-5.078-3.943-8.007C14.871,125.536,14.863,125.398,14.974,125.268z"/>
	<path fill-rule="evenodd" clip-rule="evenodd" fill="#0D72B9" d="M170.894,55.44c-0.017,4.293-3.461,7.683-7.776,7.654
		c-4.223-0.029-7.635-3.493-7.62-7.737c0.016-4.264,3.5-7.685,7.795-7.653C167.535,47.736,170.909,51.169,170.894,55.44z"/>
	<path fill-rule="evenodd" clip-rule="evenodd" fill="#0D72B9" d="M200.818,63.624c0.833-2.359,1.953-4.586,3.143-6.779
		c4.69-8.639,11.164-15.663,19.227-21.254c3-2.082,6.133-3.962,9.185-5.962c0.046-0.029,0.114-0.024,0.27-0.052
		c-0.589,1.485-1.361,2.82-2.069,4.185c-0.718,1.381-1.564,2.684-2.513,3.951c4.676,1.079,6.808,2.322,7.662,4.461
		c-0.969-0.076-1.921-0.205-2.874-0.215c-4.117-0.038-8.049,0.853-11.812,2.488c-6.551,2.847-11.741,7.367-15.957,13.073
		c-1.523,2.062-2.816,4.265-4.047,6.508C200.67,64.047,200.726,63.845,200.818,63.624z"/>
	<path fill-rule="evenodd" clip-rule="evenodd" fill="#00A66F" d="M100.976,126.726c4.12-0.007,7.458,3.304,7.466,7.405
		c0.008,4.096-3.333,7.446-7.434,7.454c-4.102,0.007-7.459-3.328-7.471-7.421C93.527,130.066,96.86,126.733,100.976,126.726z"/>
	<path fill-rule="evenodd" clip-rule="evenodd" fill="#EF5D26" d="M138.952,102.291c-4.065,0.018-7.385-3.2-7.372-7.268
		c0.014-4.312,3.401-7.329,7.292-7.371c4.019-0.044,7.355,3.272,7.382,7.292C146.28,98.983,143.011,102.272,138.952,102.291z"/>
	<path fill-rule="evenodd" clip-rule="evenodd" fill="#F8AE41" d="M254.995,170.658c4.58-0.758,9.156-1.533,13.619-2.849
		c4.63-1.362,9.064-3.168,13.169-5.727c3.037-1.896,5.797-4.118,7.959-7.015c0.542-0.724,0.976-1.516,1.445-2.303
		c0.343,0.795,0.476,2.56,0.291,4.195c-0.157,1.391-0.45,2.754-1.08,4.087c3.133,0.051,6.178-0.009,8.917,1.761
		c-14.183,5.495-28.905,7.597-43.933,8.026C255.201,170.893,254.991,171.01,254.995,170.658z"/>
	<path fill-rule="evenodd" clip-rule="evenodd" fill="#F8AE41" d="M200.428,135.417c-3.914,0.082-7.32-3.244-7.328-7.292
		c-0.008-3.77,3.054-7.314,7.307-7.33c4.028-0.015,7.34,3.292,7.342,7.31C207.752,132.146,204.479,135.415,200.428,135.417z"/>
	<path fill-rule="evenodd" clip-rule="evenodd" fill="#00A66F" d="M42.517,167.979c-5.338,0.322-10.6,1.094-15.733,2.644
		c-4.045,1.222-7.931,2.801-11.497,5.104c-1.475,0.952-2.833,2.042-4.054,3.303c-0.125,0.13-0.215,0.312-0.425,0.342
		c-0.063-1.843,0.955-4.825,2.699-7.856c-2.885-0.763-5.783-1.494-7.938-4.06c1.143-0.055,2.099-0.064,3.05-0.132
		c7.345-0.514,14.692-1.013,22.062-0.93c5.525,0.063,11.034,0.405,16.519,1.091c0.309,0.039,0.614,0.111,0.92,0.167
		c-0.117,0.493-0.507,0.233-0.76,0.245C45.746,167.966,44.129,167.814,42.517,167.979z"/>
	<path fill-rule="evenodd" clip-rule="evenodd" fill="#0D72B9" d="M177.571,40.243c-2.357-2.285-4.482-4.777-6.54-7.329
		c-4.877-6.05-8.95-12.612-12.455-19.541c-1.084-2.141-2.111-4.311-3.329-6.409c1.029,0.087,4.632,2.241,7.311,4.361
		c1.051-2.721,2.56-5.032,5.415-6.13c0.205,0.258,0.055,0.46-0.008,0.649c-1.016,3.153-1.107,6.392-0.75,9.637
		c0.944,8.61,4.572,16.129,9.557,23.076c0.345,0.481,0.695,0.958,1.043,1.437C177.857,40.198,177.776,40.28,177.571,40.243z"/>
	<path fill-rule="evenodd" clip-rule="evenodd" fill="#0D72B9" d="M228.753,87.826c2.941-2.471,5.75-5.079,8.265-7.992
		c3.156-3.658,5.869-7.597,7.723-12.087c0.85-2.062,1.383-4.199,1.562-6.423c0.064-0.81,0.031-1.618-0.13-2.459
		c1.445,0.938,3.206,4.047,3.886,6.838c2.61-1.139,5.171-2.48,8.153-2.147c0,0.14,0.026,0.22-0.002,0.249
		c-2.896,2.972-5.756,5.979-8.827,8.772c-6.225,5.662-12.931,10.687-19.999,15.238c-0.128,0.083-0.273,0.145-0.412,0.215
		C228.78,88.09,228.73,87.997,228.753,87.826z"/>
	<path fill-rule="evenodd" clip-rule="evenodd" fill="#EF5D26" d="M90.276,64.591c-4.038-5.173-7.698-10.604-11.027-16.258
		c-2.936-4.987-5.345-10.224-7.44-15.61c-0.045-0.115-0.103-0.23,0.056-0.416c2.235,1.546,4.494,3.073,6.657,4.89
		c1.276-2.562,3.167-4.295,6.035-4.76c0.086,0.21-0.003,0.31-0.063,0.411c-1.155,1.926-1.578,4.053-1.693,6.257
		c-0.239,4.562,0.706,8.936,2.136,13.226c1.247,3.741,2.917,7.295,4.835,10.735c0.243,0.436,0.481,0.873,0.723,1.31
		C90.553,64.58,90.462,64.633,90.276,64.591z"/>
	<path fill-rule="evenodd" clip-rule="evenodd" fill="#F8AE41" d="M248.427,117.037c-0.546,0.115-1.049-0.116-1.562-0.204
		c-3.169-0.541-6.333-0.4-9.487,0.067c-3.905,0.58-7.633,1.751-11.181,3.489c-2.362,1.157-4.559,2.565-6.548,4.289
		c-0.187,0.162-0.395,0.303-0.593,0.454c-0.227,0.038-0.32-0.056-0.275-0.283c0.892-1.208,1.941-2.271,3.027-3.304
		c3.449-3.287,7.3-6.049,11.27-8.655c2.74-1.797,5.494-3.568,8.235-5.362c1.253-0.821,2.474-1.69,3.567-2.723
		c0.088-0.083,0.171-0.178,0.395-0.126c-0.632,2.541-1.355,5.039-2.778,7.36c0.385,0.171,0.741,0.325,1.094,0.487
		c1.671,0.764,3.159,1.768,4.236,3.289c0.263,0.371,0.616,0.716,0.59,1.232L248.427,117.037z"/>
	<path fill-rule="evenodd" clip-rule="evenodd" fill="#EF5D26" d="M142.577,60.451c-0.2-5.918,0.917-11.597,3.115-17.078
		c1.224-3.05,2.782-5.928,4.604-8.657c1.523-2.28,3.118-4.513,4.681-6.768c0.317,0.847,0.291,3.001-0.103,7.901
		c2.693,0.019,5.063,0.826,7.001,2.998c-0.667,0.078-1.228,0.15-1.791,0.207c-2.842,0.287-5.345,1.44-7.61,3.109
		c-4.528,3.339-7.23,7.913-8.778,13.239c-0.478,1.65-0.773,3.337-0.965,5.044C142.681,60.545,142.629,60.541,142.577,60.451z"/>
	<path fill-rule="evenodd" clip-rule="evenodd" fill="#EF5D26" d="M57.526,63.371c-0.004,3.506-2.811,6.29-6.324,6.27
		c-3.435-0.02-6.238-2.847-6.234-6.286c0.004-3.481,2.845-6.288,6.345-6.269C54.764,57.103,57.53,59.901,57.526,63.371z"/>
	<path fill-rule="evenodd" clip-rule="evenodd" fill="#F8AE41" d="M291.644,131.309c-3.174,0.103-6.236-2.506-6.287-6.21
		c-0.048-3.46,2.844-6.385,6.287-6.337c3.952,0.056,6.301,3.298,6.283,6.333C297.906,128.453,295.046,131.403,291.644,131.309z"/>
	<path fill-rule="evenodd" clip-rule="evenodd" fill="#F8AE41" d="M252.131,150.412c-0.1-3.41,2.866-6.265,6.211-6.272
		c3.16-0.008,6.328,2.441,6.322,6.28c-0.004,3.474-2.653,6.3-6.332,6.272C254.312,156.661,252.006,153.313,252.131,150.412z"/>
	<path fill-rule="evenodd" clip-rule="evenodd" fill="#00A66F" d="M14.411,73.898c3.482,0.009,6.23,2.758,6.24,6.241
		c0.009,3.5-2.811,6.332-6.291,6.318c-3.421-0.014-6.248-2.844-6.271-6.275C8.067,76.711,10.908,73.887,14.411,73.898z"/>
	<path fill-rule="evenodd" clip-rule="evenodd" fill="#0D72B9" d="M233.109,61.701c-0.012,3.506-2.822,6.281-6.337,6.255
		c-3.427-0.026-6.244-2.877-6.227-6.301c0.02-3.477,2.872-6.28,6.368-6.254C230.36,55.424,233.119,58.229,233.109,61.701z"/>
	<path fill-rule="evenodd" clip-rule="evenodd" fill="#EF5D26" d="M104.089,24.035c3.463,0.056,6.24,2.877,6.208,6.308
		c-0.032,3.463-2.959,6.327-6.386,6.25c-3.519-0.08-6.23-2.903-6.172-6.428C97.796,26.698,100.614,23.979,104.089,24.035z"/>
	<path fill-rule="evenodd" clip-rule="evenodd" fill="#F8AE41" d="M278.172,199.017c-0.073-3.265,2.618-6.236,6.241-6.252
		c3.371-0.015,6.324,2.628,6.294,6.314c-0.035,4.064-3.42,6.311-6.356,6.244C280.881,205.244,278.16,202.517,278.172,199.017z"/>
	<path fill-rule="evenodd" clip-rule="evenodd" fill="#F8AE41" d="M276.58,83.787c-0.006,3.466-2.78,6.262-6.231,6.263
		c-3.284,0-6.332-2.541-6.301-6.31c0.033-4.119,3.455-6.292,6.346-6.265C273.682,77.506,276.699,80.336,276.58,83.787z"/>
	<path fill-rule="evenodd" clip-rule="evenodd" fill="#EF5D26" d="M108.66,123.781c-1.885-2.839-3.984-5.507-6.393-7.922
		c-2.322-2.329-4.846-4.402-7.721-6.022c-2.137-1.203-4.384-2.073-6.891-2.196c0.075-0.307,0.349-0.364,0.546-0.474
		c1.583-0.882,3.219-1.631,4.995-2.056c0.404-0.097,0.979,0.159,1.185-0.297c0.15-0.333,0.021-0.795,0.003-1.199
		c-0.084-1.883,0.005-3.741,0.738-5.515c0.06-0.144,0.119-0.288,0.187-0.428c0.04-0.083,0.093-0.159,0.14-0.237
		c0.065,0.02,0.157,0.022,0.173,0.057c1.669,3.662,3.676,7.147,5.559,10.697c2.554,4.819,5.108,9.639,7.372,14.604
		c0.116,0.254,0.214,0.517,0.321,0.775C108.935,123.772,108.839,123.818,108.66,123.781z"/>
	<path fill-rule="evenodd" clip-rule="evenodd" fill="#00A66F" d="M10.718,132.809c2.993-0.023,5.491,2.441,5.521,5.447
		c0.029,2.983-2.446,5.489-5.451,5.52c-2.982,0.031-5.499-2.453-5.523-5.449C5.242,135.338,7.721,132.831,10.718,132.809z"/>
	<path fill-rule="evenodd" clip-rule="evenodd" fill="#F8AE41" d="M241.083,206.007c2.913-0.095,5.496,2.393,5.478,5.433
		c-0.02,3.045-2.417,5.473-5.452,5.473c-3.052,0.002-5.458-2.398-5.46-5.446C235.646,208.388,238.013,206.009,241.083,206.007z"/>
	<path fill-rule="evenodd" clip-rule="evenodd" fill="#00A66F" d="M49.363,98.001c-3.024-0.004-5.493-2.468-5.478-5.466
		c0.016-3.016,2.479-5.467,5.492-5.463c3.01,0.003,5.479,2.474,5.475,5.479C54.848,95.57,52.396,98.005,49.363,98.001z"/>
	<path fill-rule="evenodd" clip-rule="evenodd" fill="#00A66F" d="M63.127,153.489c2.942,0.061,5.414,2.431,5.352,5.583
		c-0.06,3.088-2.633,5.466-5.683,5.353c-2.958-0.109-5.333-2.629-5.269-5.59C57.594,155.825,60.129,153.404,63.127,153.489z"/>
	<path fill-rule="evenodd" clip-rule="evenodd" fill="#00A66F" d="M26.178,204.393c-3.036,0.018-5.5-2.398-5.525-5.411
		c-0.025-3.007,2.43-5.488,5.444-5.502c3.024-0.016,5.499,2.412,5.523,5.421C31.644,201.915,29.205,204.376,26.178,204.393z"/>
	<path fill-rule="evenodd" clip-rule="evenodd" fill="#D7AA79" d="M137.755,304.652c0.284-0.059,0.496-0.245,0.712-0.418
		c1.213-0.969,2.976-1.181,4.31,0.119c0.042,0.042,0.107,0.06,0.161,0.089c-0.003,0.044,0,0.087,0.007,0.132
		c0.416,0.193,0.539,0.588,0.658,0.977c1.119,3.639,2.3,7.258,3.449,10.891c0.085,0.266,0.183,0.533,0.117,0.823
		c-0.349,0.548-0.917,0.688-1.5,0.802c-2.468-4.143-4.938-8.285-7.404-12.429C138.076,305.32,137.831,305.029,137.755,304.652z"/>
	<path fill-rule="evenodd" clip-rule="evenodd" fill="#EF5D26" d="M81.901,28.715c-0.024,1.901-1.521,3.347-3.435,3.317
		c-1.885-0.028-3.371-1.558-3.34-3.435c0.031-1.857,1.603-3.377,3.457-3.344C80.457,25.286,81.926,26.819,81.901,28.715z"/>
	<path fill-rule="evenodd" clip-rule="evenodd" fill="#952F35" d="M154.008,197.746c-0.484,1.416-0.757,2.885-1.105,4.333
		c-1.062,4.416-2.112,8.834-3.159,13.254c-0.186,0.781-0.266,1.587-0.605,2.331c-0.091-1.13,0.116-2.244,0.226-3.356
		c0.273-2.756,0.613-5.51,1.026-8.252c0.654-4.347,1.483-8.658,2.507-12.932c0.041-0.095,0.094-0.101,0.157-0.02
		C153.458,194.633,153.832,196.169,154.008,197.746z"/>
	<path fill-rule="evenodd" clip-rule="evenodd" fill="#EF5D26" d="M91.989,100.508c0.004,1.649-1.305,2.99-2.944,3.015
		c-1.64,0.026-3.063-1.397-3.038-3.034c0.026-1.642,1.363-2.949,3.011-2.945C90.672,97.548,91.986,98.858,91.989,100.508z"/>
	<path fill-rule="evenodd" clip-rule="evenodd" fill="#0D72B9" d="M252.948,62.354c-1.558,0.015-2.809-1.193-2.828-2.733
		c-0.02-1.528,1.222-2.8,2.756-2.825c1.523-0.026,2.809,1.223,2.832,2.751C255.731,61.082,254.494,62.34,252.948,62.354z"/>
	<path fill-rule="evenodd" clip-rule="evenodd" fill="#0D72B9" d="M235.819,38.37c-1.554-0.016-2.787-1.285-2.75-2.834
		c0.034-1.502,1.278-2.72,2.783-2.727c1.532-0.007,2.816,1.277,2.805,2.805C238.646,37.162,237.385,38.386,235.819,38.37z"/>
	<path fill-rule="evenodd" clip-rule="evenodd" fill="#0D72B9" d="M158.421,4.783c0.014-1.557,1.275-2.795,2.82-2.766
		c1.55,0.03,2.746,1.292,2.715,2.865c-0.027,1.514-1.259,2.724-2.768,2.722C159.643,7.603,158.409,6.343,158.421,4.783z"/>
	<path fill-rule="evenodd" clip-rule="evenodd" fill="#F8AE41" d="M249.093,112.605c-1.593-0.004-2.768-1.198-2.754-2.794
		c0.016-1.529,1.207-2.713,2.739-2.722c1.576-0.009,2.794,1.179,2.822,2.754C251.931,111.377,250.678,112.61,249.093,112.605z"/>
	<path fill-rule="evenodd" clip-rule="evenodd" fill="#EF5D26" d="M159.772,29.334c1.563,0.021,2.75,1.265,2.713,2.846
		c-0.036,1.526-1.246,2.708-2.772,2.707c-1.557-0.002-2.772-1.241-2.761-2.815C156.962,30.506,158.19,29.312,159.772,29.334z"/>
	<path fill-rule="evenodd" clip-rule="evenodd" fill="#444445" d="M145.669,318.066c0.313-0.523,0.952-0.446,1.385-0.747
		c0.656-0.503,1.351-0.597,2.092-0.194c0.373,0.509,0.186,1.102,0.241,1.657c0.028,0.433-0.028,0.864-0.005,1.297
		c0.015,0.401-0.021,0.804-0.014,1.204c-0.042,0.412,0.061,0.851-0.144,1.251c0.671-1.09,1.332-2.2,1.976-3.319
		c0.245-0.425,0.434-0.893,0.877-1.17c0.16-0.022,0.267,0.027,0.269,0.208c-0.9,1.52-1.8,3.038-2.704,4.557
		c-0.095,0.16-0.196,0.319-0.318,0.455c-0.179,0.203-0.383,0.194-0.547-0.016c-0.133-0.17-0.241-0.359-0.352-0.546
		C147.506,321.159,146.588,319.613,145.669,318.066z"/>
	<path fill-rule="evenodd" clip-rule="evenodd" fill="#CFAD87" d="M152.347,318.253c-0.074-0.054-0.146-0.106-0.221-0.16
		c-0.062-0.074-0.084-0.159-0.076-0.255c1.459-2.715,3.13-5.303,4.704-7.951c1.08-1.814,2.11-3.66,3.234-5.452
		c0.114,0.104,0.231,0.21,0.347,0.312c-0.498,1.185-1.25,2.224-1.898,3.321C156.42,311.471,154.379,314.86,152.347,318.253z"/>
	<path fill-rule="evenodd" clip-rule="evenodd" fill="#4FA3BF" d="M142.972,234.31c0.066-1.133-0.291-2.245-0.183-3.38
		c0.174-0.605-0.081-1.243,0.145-1.845c0.016-2.891,0.028-5.78,0.052-8.673c0.004-0.366-0.071-0.749,0.11-1.1
		c0.018,0.216,0.051,0.432,0.05,0.647c-0.005,4.454-0.013,8.907-0.029,13.359C143.115,233.65,143.217,234.009,142.972,234.31z"/>
	<path fill-rule="evenodd" clip-rule="evenodd" fill="#34B588" d="M42.517,167.979c0.26-0.251,0.588-0.158,0.889-0.161
		c1.276-0.012,2.551-0.002,3.826-0.014c0.3-0.002,0.628,0.105,0.887-0.153c0.576-0.069,1.114,0.184,1.68,0.196
		c0.019,0.354-0.201,0.227-0.377,0.188C47.12,168.017,44.818,167.999,42.517,167.979z"/>
	<path fill-rule="evenodd" clip-rule="evenodd" fill="#318AC4" d="M200.818,63.624c0.032,0.155,0.036,0.325,0.213,0.404
		c-0.173,0.656-0.557,1.22-0.813,1.84c-0.187,0.032-0.237-0.05-0.18-0.22C200.222,64.944,200.448,64.256,200.818,63.624z"/>
	<path fill-rule="evenodd" clip-rule="evenodd" fill="#F9B655" d="M218.78,124.849c0.091,0.094,0.184,0.188,0.275,0.283
		c-0.458,0.483-0.918,0.968-1.377,1.451c-0.161,0.049-0.253,0.026-0.169-0.169C217.91,125.872,218.254,125.288,218.78,124.849z"/>
	<path fill-rule="evenodd" clip-rule="evenodd" fill="#3287C3" d="M177.571,40.243c0.082-0.083,0.161-0.166,0.243-0.249
		c0.458,0.37,0.761,0.869,1.122,1.321c0.061,0.111,0.049,0.215-0.034,0.312C178.436,41.186,177.937,40.779,177.571,40.243z"/>
	<path fill-rule="evenodd" clip-rule="evenodd" fill="#4F9BCC" d="M195.793,114.228c0.224,0.229,0.133,0.521,0.162,0.789
		c0.034,0.298-0.062,0.622,0.167,0.884c0.079,0.375,0.025,0.752-0.006,1.128c-0.045,0.098-0.092,0.096-0.142,0.005
		C195.83,116.104,195.682,115.175,195.793,114.228z"/>
	<path fill-rule="evenodd" clip-rule="evenodd" fill="#F9BF69" d="M220.688,137.272c0.078,0.075,0.153,0.15,0.23,0.225
		c-0.527,0.399-1.098,0.714-1.711,0.958c-0.021-0.026-0.043-0.053-0.064-0.079C219.582,137.903,220.116,137.56,220.688,137.272z"/>
	<path fill-rule="evenodd" clip-rule="evenodd" fill="#F27D51" d="M113.346,112.727c0.154-0.076,0.153-0.228,0.176-0.367
		c0.35,0.519,0.59,1.09,0.793,1.679c-0.075,0.088-0.153,0.09-0.234,0.006C113.807,113.623,113.51,113.212,113.346,112.727z"/>
	<path fill-rule="evenodd" clip-rule="evenodd" fill="#F69A78" d="M117.08,89.877c0.067-0.066,0.134-0.133,0.201-0.2
		c0.396,0.306,0.635,0.731,0.861,1.182C117.722,90.604,117.352,90.296,117.08,89.877z"/>
	<path fill-rule="evenodd" clip-rule="evenodd" fill="#FBC677" d="M211.115,118.895c0.067,0.068,0.135,0.135,0.2,0.203
		c-0.252,0.436-0.503,0.871-0.755,1.306c-0.066,0.08-0.137,0.085-0.214,0.016C210.529,119.874,210.751,119.348,211.115,118.895z"/>
	<path fill-rule="evenodd" clip-rule="evenodd" fill="#F28258" d="M90.276,64.591c0.073-0.072,0.144-0.144,0.217-0.216
		c0.316,0.333,0.517,0.741,0.742,1.135c0.081,0.197-0.011,0.225-0.177,0.181C90.793,65.328,90.444,65.023,90.276,64.591z"/>
	<path fill-rule="evenodd" clip-rule="evenodd" fill="#F69A77" d="M130.982,78.771c0.209,0.561,0.333,1.138,0.346,1.737
		c-0.066,0.077-0.122,0.065-0.167-0.021c-0.128-0.434-0.256-0.866-0.384-1.3C130.906,79.079,130.789,78.848,130.982,78.771z"/>
	<path fill-rule="evenodd" clip-rule="evenodd" fill="#FABE67" d="M254.995,170.658c0.092,0.14,0.249,0.14,0.388,0.177
		c-0.553,0.252-1.14,0.146-1.714,0.163c-0.049-0.041-0.061-0.08-0.041-0.113c0.021-0.032,0.041-0.048,0.059-0.048
		C254.135,170.867,254.543,170.602,254.995,170.658z"/>
	<path fill-rule="evenodd" clip-rule="evenodd" fill="#8ACFBB" d="M49.422,168.035c0.126-0.058,0.288-0.05,0.377-0.188
		c0.41-0.088,0.741,0.2,1.13,0.256C50.419,168.178,49.915,168.286,49.422,168.035z"/>
	<path fill-rule="evenodd" clip-rule="evenodd" fill="#5AC19F" d="M124.023,211.092c0.167-0.074,0.137-0.248,0.191-0.381
		c0.271,0.47,0.24,1.005,0.34,1.512c-0.061,0.089-0.127,0.091-0.195,0.011C124.138,211.884,124.067,211.494,124.023,211.092z"/>
	<path fill-rule="evenodd" clip-rule="evenodd" fill="#FBD9B6" d="M154.935,235.64c-0.021-0.751-0.089-1.502,0.014-2.253
		c0.052,0,0.103,0,0.154,0c-0.004,0.743-0.006,1.488-0.009,2.233C155.055,235.724,155,235.726,154.935,235.64z"/>
	<path fill-rule="evenodd" clip-rule="evenodd" fill="#9CC6E2" d="M199.864,66.806c-0.183,0.468-0.301,0.968-0.652,1.36
		c0.079-0.541,0.177-1.074,0.458-1.552C199.794,66.618,199.806,66.737,199.864,66.806z"/>
	<path fill-rule="evenodd" clip-rule="evenodd" fill="#F9BD65" d="M188.838,193.515c-0.177,0.262-0.551,0.062-0.729,0.317
		c-0.387,0.054-0.768,0.036-1.149-0.065C187.593,193.711,188.188,193.412,188.838,193.515z"/>
	<path fill-rule="evenodd" clip-rule="evenodd" fill="#FBCD88" d="M188.447,183.916c0.062,0.062,0.123,0.122,0.185,0.183
		c-0.185,0.377-0.368,0.751-0.553,1.128c-0.175,0.053-0.255,0.01-0.198-0.183C188.017,184.642,188.158,184.242,188.447,183.916z"/>
	<path fill-rule="evenodd" clip-rule="evenodd" fill="#F68D64" d="M108.66,123.781c0.07-0.071,0.141-0.143,0.212-0.214
		c0.283,0.333,0.407,0.742,0.553,1.142c0.067,0.093,0.059,0.178-0.026,0.256C109.094,124.606,108.825,124.226,108.66,123.781z"/>
	<path fill-rule="evenodd" clip-rule="evenodd" fill="#4697CB" d="M189.741,80.656c0.072,0.074,0.146,0.148,0.216,0.222
		c-0.031,0.352-0.253,0.622-0.398,0.925c-0.176,0.028-0.268-0.02-0.193-0.216C189.452,81.261,189.516,80.925,189.741,80.656z"/>
	<path fill-rule="evenodd" clip-rule="evenodd" fill="#FCE3BE" d="M187.881,185.044c0.065,0.062,0.132,0.121,0.198,0.183
		c-0.159,0.359-0.304,0.723-0.689,1.19C187.484,185.794,187.653,185.409,187.881,185.044z"/>
	<path fill-rule="evenodd" clip-rule="evenodd" fill="#87CEB6" d="M58.64,151.505c0.056-0.058,0.113-0.114,0.169-0.171
		c0.362,0.176,0.587,0.479,0.939,0.973C59.197,152.035,58.895,151.803,58.64,151.505z"/>
	<path fill-rule="evenodd" clip-rule="evenodd" fill="#DBEFE8" d="M142.934,229.085c0.005,0.619,0.145,1.247-0.145,1.845
		c-0.009-0.617-0.018-1.231-0.026-1.849C142.82,229.083,142.877,229.083,142.934,229.085z"/>
	<path fill-rule="evenodd" clip-rule="evenodd" fill="#FBC36F" d="M203.471,181.896c0.067,0.063,0.133,0.125,0.2,0.188
		c-0.343,0.225-0.731,0.315-1.13,0.368c-0.097,0.07-0.185,0.061-0.262-0.031C202.622,182.121,203.052,182.023,203.471,181.896z"/>
	<path fill-rule="evenodd" clip-rule="evenodd" fill="#A2D8C7" d="M124.596,212.783c0.312,0.355,0.114,0.748,0.087,1.135
		c-0.059-0.395-0.346-0.727-0.275-1.146C124.476,212.694,124.538,212.698,124.596,212.783z"/>
	<path fill-rule="evenodd" clip-rule="evenodd" fill="#2CB689" d="M106.925,202.695c0.074-0.067,0.148-0.136,0.223-0.204
		c0.311,0.105,0.511,0.361,0.75,0.562c0.033,0.173-0.002,0.271-0.205,0.194C107.419,203.088,107.12,202.965,106.925,202.695z"/>
	<path fill-rule="evenodd" clip-rule="evenodd" fill="#5EC1A0" d="M107.693,203.247c0.068-0.066,0.136-0.13,0.205-0.194
		c0.308,0.162,0.573,0.377,0.769,0.668c0.05,0.047,0.066,0.093,0.047,0.136c-0.019,0.045-0.036,0.066-0.054,0.066
		C108.292,203.764,107.985,203.517,107.693,203.247z"/>
	<path fill-rule="evenodd" clip-rule="evenodd" fill="#45B78D" d="M78.455,137.692c0.131-0.062,0.296-0.058,0.386-0.201
		c0.334-0.026,0.625,0.145,0.941,0.202c-0.017,0.363-0.254,0.193-0.428,0.178C79.044,137.86,78.723,137.91,78.455,137.692z"/>
	<path fill-rule="evenodd" clip-rule="evenodd" fill="#F18257" d="M130.982,78.771c-0.039,0.154-0.036,0.327-0.206,0.417
		c-0.051-0.253-0.228-0.476-0.186-0.751c0.22-0.14,0.122-0.383,0.186-0.574C130.985,78.132,130.954,78.458,130.982,78.771z"/>
	<path fill-rule="evenodd" clip-rule="evenodd" fill="#3C91C8" d="M228.753,87.826c0.073,0.069,0.145,0.137,0.218,0.204
		c-0.196,0.272-0.503,0.385-0.78,0.54c-0.196,0.072-0.232-0.02-0.19-0.188C228.245,88.189,228.444,87.932,228.753,87.826z"/>
	<path fill-rule="evenodd" clip-rule="evenodd" fill="#FCDEB4" d="M253.687,170.837c-0.01,0.054-0.016,0.106-0.018,0.161
		c-0.271,0.293-0.599,0.19-0.944,0.063C253.046,170.986,253.365,170.912,253.687,170.837z"/>
	<path fill-rule="evenodd" clip-rule="evenodd" fill="#57A0CF" d="M199.864,66.806c-0.064-0.063-0.13-0.128-0.194-0.192
		c0.078-0.338,0.164-0.675,0.368-0.966c0.06,0.074,0.121,0.146,0.18,0.22C200.102,66.181,199.982,66.494,199.864,66.806z"/>
	<path fill-rule="evenodd" clip-rule="evenodd" fill="#6FA6D2" d="M178.902,41.627c0.012-0.104,0.021-0.208,0.034-0.312
		c0.311,0.27,0.657,0.513,0.729,0.963l-0.01,0.011C179.313,42.17,179.106,41.901,178.902,41.627z"/>
	<path fill-rule="evenodd" clip-rule="evenodd" fill="#5BC09B" d="M79.354,137.871c0.154-0.033,0.321-0.033,0.428-0.178
		c0.31,0.062,0.619,0.125,0.928,0.187c0.038,0.167,0,0.255-0.19,0.182C80.124,138.038,79.716,138.093,79.354,137.871z"/>
	<path fill-rule="evenodd" clip-rule="evenodd" fill="#FCD398" d="M217.51,126.414c0.057,0.057,0.112,0.113,0.169,0.169
		c-0.163,0.336-0.417,0.591-0.727,0.796l-0.04-0.033C216.989,126.958,217.245,126.683,217.51,126.414z"/>
	<path fill-rule="evenodd" clip-rule="evenodd" fill="#97D3BE" d="M108.828,203.808c0.332,0.162,0.599,0.393,0.757,0.733
		l0.005-0.004c-0.347-0.016-0.567-0.228-0.754-0.49c-0.047-0.051-0.065-0.104-0.051-0.158S108.812,203.808,108.828,203.808z"/>
	<path fill-rule="evenodd" clip-rule="evenodd" fill="#F68B65" d="M117.666,97.727c-0.194,0.071-0.454-0.04-0.586,0.207
		c-0.175-0.041-0.332-0.106-0.429-0.346C117.019,97.523,117.352,97.518,117.666,97.727z"/>
	<path fill-rule="evenodd" clip-rule="evenodd" fill="#F7BAA3" d="M114.673,114.791c0.21,0.2,0.316,0.444,0.327,0.789
		c-0.34-0.188-0.402-0.515-0.537-0.788C114.533,114.688,114.603,114.687,114.673,114.791z"/>
	<path fill-rule="evenodd" clip-rule="evenodd" fill="#FCD398" d="M202.279,182.422c0.087,0.01,0.175,0.02,0.262,0.031
		c-0.347,0.236-0.729,0.357-1.149,0.357l-0.002-0.004C201.626,182.537,201.919,182.4,202.279,182.422z"/>
	<path fill-rule="evenodd" clip-rule="evenodd" fill="#F69B78" d="M142.577,60.451c0.05,0,0.102-0.001,0.153-0.004
		c0.063,0.372,0.031,0.739-0.066,1.243C142.521,61.194,142.508,60.827,142.577,60.451z"/>
	<path fill-rule="evenodd" clip-rule="evenodd" fill="#A1CAE5" d="M189.203,82.561c-0.108,0.289-0.234,0.566-0.494,0.857
		c-0.067-0.381,0.077-0.626,0.27-0.856C189.054,82.461,189.127,82.46,189.203,82.561z"/>
	<path fill-rule="evenodd" clip-rule="evenodd" fill="#6BABD5" d="M189.203,82.561c-0.076,0-0.149,0-0.225,0.001
		c0.081-0.344,0.181-0.681,0.387-0.975c0.065,0.072,0.129,0.144,0.193,0.216C189.44,82.055,189.321,82.308,189.203,82.561z"/>
	<path fill-rule="evenodd" clip-rule="evenodd" fill="#FACBB9" d="M91.617,66.062c0.212,0.238,0.395,0.492,0.564,0.907
		c-0.375-0.167-0.533-0.345-0.587-0.62C91.513,66.247,91.521,66.15,91.617,66.062z"/>
	<path fill-rule="evenodd" clip-rule="evenodd" fill="#8ED0B9" d="M80.519,138.062c0.063-0.06,0.127-0.121,0.19-0.182
		c0.315,0.059,0.631,0.117,0.946,0.176c0.071,0.026,0.096,0.056,0.078,0.091c-0.021,0.037-0.041,0.056-0.062,0.056
		C81.278,138.218,80.877,138.317,80.519,138.062z"/>
	<path fill-rule="evenodd" clip-rule="evenodd" fill="#FCDDAE" d="M210.347,120.419c0.07-0.005,0.142-0.01,0.214-0.016
		c-0.117,0.235-0.161,0.524-0.483,0.673C210.06,120.786,210.166,120.588,210.347,120.419z"/>
	<path fill-rule="evenodd" clip-rule="evenodd" fill="#97C3E1" d="M227.635,88.947c-0.21,0.221-0.472,0.346-0.761,0.422
		c-0.052-0.053-0.065-0.104-0.046-0.155c0.021-0.049,0.038-0.074,0.056-0.074c0.187-0.125,0.374-0.251,0.561-0.376
		C227.519,88.815,227.623,88.833,227.635,88.947z"/>
	<path fill-rule="evenodd" clip-rule="evenodd" fill="#F9C1AC" d="M109.398,124.965c0.008-0.085,0.018-0.17,0.026-0.256
		c0.227,0.193,0.269,0.466,0.373,0.746C109.44,125.42,109.431,125.184,109.398,124.965z"/>
	<path fill-rule="evenodd" clip-rule="evenodd" fill="#67A8D3" d="M227.635,88.947c-0.062-0.061-0.126-0.122-0.19-0.183
		c0.185-0.128,0.371-0.256,0.556-0.383c0.063,0.063,0.126,0.126,0.19,0.188C228.006,88.695,227.819,88.821,227.635,88.947z"/>
	<path fill-rule="evenodd" clip-rule="evenodd" fill="#F59672" d="M114.673,114.791c-0.071,0-0.14,0-0.21,0.001
		c-0.126-0.249-0.254-0.498-0.382-0.747c0.078-0.002,0.156-0.004,0.234-0.006C114.525,114.246,114.607,114.515,114.673,114.791z"/>
	<path fill-rule="evenodd" clip-rule="evenodd" fill="#F6AB8E" d="M91.617,66.062c-0.007,0.096-0.016,0.191-0.023,0.287
		c-0.22-0.185-0.425-0.384-0.536-0.658c0.059-0.06,0.118-0.121,0.177-0.181C91.426,65.65,91.503,65.869,91.617,66.062z"/>
	<path fill-rule="evenodd" clip-rule="evenodd" fill="#FAC7B4" d="M131.161,80.487c0.056,0.007,0.112,0.014,0.167,0.021
		c0.228,0.146,0.178,0.354,0.072,0.591C131.32,80.894,131.241,80.69,131.161,80.487z"/>
	<path fill-rule="evenodd" clip-rule="evenodd" fill="#BEDAEB" d="M226.884,89.141c-0.004,0.076-0.008,0.151-0.01,0.228
		c-0.088,0.17-0.226,0.251-0.504,0.3C226.497,89.363,226.67,89.232,226.884,89.141z"/>
	<path fill-rule="evenodd" clip-rule="evenodd" fill="#FCECD3" d="M201.392,182.811c-0.137,0.212-0.343,0.287-0.595,0.303
		c0.062-0.394,0.359-0.285,0.593-0.307L201.392,182.811z"/>
	<path fill-rule="evenodd" clip-rule="evenodd" fill="#FDCF8D" d="M218.605,138.772c0.11-0.225,0.285-0.365,0.537-0.395
		c0.037,0.013,0.059,0.039,0.064,0.079c-0.132,0.218-0.332,0.318-0.578,0.345L218.605,138.772z"/>
	<path fill-rule="evenodd" clip-rule="evenodd" fill="#FCE3BF" d="M216.952,127.379c-0.021,0.084-0.025,0.18-0.069,0.251
		c-0.041,0.068-0.156,0.173-0.185,0.159c-0.162-0.084-0.057-0.197,0.01-0.282c0.052-0.065,0.136-0.108,0.204-0.16L216.952,127.379z"
		/>
	<path fill-rule="evenodd" clip-rule="evenodd" fill="#6399CB" d="M174.427,18.895c-0.058,0.097-0.116,0.194-0.177,0.291
		c-0.128,0.005-0.268-0.068-0.241-0.176C174.065,18.769,174.271,18.885,174.427,18.895z"/>
	<path fill-rule="evenodd" clip-rule="evenodd" fill="#FCE2BC" d="M218.629,138.8c-0.051,0.071-0.092,0.157-0.156,0.21
		c-0.085,0.068-0.2,0.175-0.283,0.01c-0.016-0.028,0.093-0.142,0.162-0.184c0.073-0.042,0.168-0.044,0.256-0.064
		C218.605,138.772,218.629,138.8,218.629,138.8z"/>
	<path fill-rule="evenodd" clip-rule="evenodd" fill="#FBC77A" d="M262.688,73.413c-0.081-0.081-0.163-0.162-0.244-0.243
		c0.069-0.143,0.215-0.328,0.327-0.238C262.934,73.062,262.829,73.268,262.688,73.413z"/>
	<path fill-rule="evenodd" clip-rule="evenodd" fill="#BCE2D8" d="M90.146,123.409c0.124,0.102,0.192,0.338,0.103,0.359
		c-0.235,0.059-0.25-0.204-0.329-0.359C89.994,123.302,90.07,123.302,90.146,123.409z"/>
	<path fill-rule="evenodd" clip-rule="evenodd" fill="#8CCFB9" d="M90.146,123.409c-0.076,0-0.151,0-0.226,0
		c-0.05-0.133-0.1-0.267-0.15-0.4c0.05-0.072,0.058-0.184,0.179-0.188C90.133,122.978,90.121,123.199,90.146,123.409z"/>
	<path fill-rule="evenodd" clip-rule="evenodd" fill="#46BC96" d="M89.949,122.821c-0.06,0.063-0.119,0.126-0.179,0.188
		c-0.073-0.179-0.147-0.357-0.222-0.537c0.077,0,0.153,0,0.229,0C89.931,122.542,89.925,122.689,89.949,122.821z"/>
	<path fill-rule="evenodd" clip-rule="evenodd" fill="#85CEBA" d="M49.226,106.724c0.076,0.071,0.152,0.141,0.228,0.212
		c-0.129,0.138-0.306,0.275-0.448,0.102C48.919,106.933,49.068,106.775,49.226,106.724z"/>
	<path fill-rule="evenodd" clip-rule="evenodd" fill="#E6D5D4" d="M149.484,179.118c-0.128-0.121-0.185-0.266-0.146-0.442
		c0.106-0.057,0.211-0.113,0.318-0.169C149.704,178.739,149.596,178.93,149.484,179.118z"/>
	<path fill-rule="evenodd" clip-rule="evenodd" fill="#84BBDD" d="M195.975,117.035c0.048,0,0.093-0.002,0.142-0.005
		c0.033,0.207,0.071,0.413-0.061,0.61C195.916,117.45,195.951,117.241,195.975,117.035z"/>
	<path fill-rule="evenodd" clip-rule="evenodd" fill="#51BE99" d="M124.596,212.783c-0.063-0.004-0.125-0.008-0.188-0.012
		c-0.017-0.18-0.033-0.358-0.049-0.538c0.064-0.005,0.13-0.007,0.195-0.011C124.568,212.409,124.583,212.598,124.596,212.783z"/>
	<path fill-rule="evenodd" clip-rule="evenodd" fill="#6CC5A2" d="M14.974,125.268c-0.01,0.138-0.019,0.274-0.029,0.412
		c-0.133-0.103-0.187-0.243-0.145-0.399C14.831,125.169,14.907,125.156,14.974,125.268z"/>
	<path fill-rule="evenodd" clip-rule="evenodd" fill="#6D4A60" d="M153.055,193.104c-0.051,0.01-0.104,0.018-0.157,0.02
		c-0.038-0.147-0.01-0.279,0.112-0.38C153.024,192.865,153.04,192.984,153.055,193.104z"/>
	<path fill-rule="evenodd" clip-rule="evenodd" fill="#BCD8C1" d="M81.67,138.203c-0.004-0.049-0.009-0.098-0.015-0.147
		c0.091,0.007,0.216-0.067,0.234,0.095C81.891,138.16,81.747,138.185,81.67,138.203z"/>
	<path fill-rule="evenodd" clip-rule="evenodd" fill="#ABDBCB" d="M109.584,204.541c0.03,0.029,0.061,0.06,0.091,0.087
		c-0.02-0.004-0.049-0.002-0.059-0.014c-0.016-0.021-0.019-0.052-0.027-0.077L109.584,204.541z"/>
	<path fill-rule="evenodd" clip-rule="evenodd" fill="#42BB91" d="M108.828,203.808c0.002,0.079,0.005,0.16,0.008,0.239
		c-0.058-0.041-0.117-0.083-0.174-0.124c0.002-0.068,0.004-0.136,0.006-0.202C108.725,203.742,108.777,203.771,108.828,203.808z"/>
	<path fill-rule="evenodd" clip-rule="evenodd" fill="#6FA6D2" d="M179.848,42.467c-0.117-0.001-0.181-0.062-0.192-0.178
		c0,0,0.01-0.01,0.01-0.01c0.123,0.005,0.181,0.073,0.177,0.195L179.848,42.467z"/>
	<path fill-rule="evenodd" clip-rule="evenodd" fill="#85BBDD" d="M180.036,42.654c-0.115-0.011-0.179-0.071-0.188-0.187
		l-0.006,0.007c0.12,0.003,0.179,0.071,0.187,0.188L180.036,42.654z"/>
	<path fill-rule="evenodd" clip-rule="evenodd" fill="#A0C9E3" d="M180.223,42.842c-0.105-0.021-0.169-0.083-0.187-0.188
		l-0.008,0.008c0.108,0.015,0.169,0.08,0.188,0.186L180.223,42.842z"/>
	<path fill-rule="evenodd" clip-rule="evenodd" fill="#BAD8EB" d="M180.217,42.848c0.029,0.027,0.057,0.054,0.087,0.081
		c-0.019-0.004-0.044-0.003-0.054-0.015c-0.014-0.02-0.02-0.047-0.027-0.071L180.217,42.848z"/>
	<path fill-rule="evenodd" clip-rule="evenodd" fill="#F8AE41" d="M248.416,117.046c0.026,0.024,0.054,0.046,0.079,0.07
		c-0.018-0.003-0.047,0.001-0.053-0.01c-0.012-0.019-0.012-0.045-0.016-0.069L248.416,117.046z"/>
	<path fill-rule="evenodd" clip-rule="evenodd" fill="#C3996B" d="M149.085,317.171c-0.692-0.156-1.355,0.087-2.031,0.148
		c-0.647-2.039-1.298-4.077-1.94-6.118c-0.567-1.806-1.117-3.615-1.688-5.417c-0.131-0.412-0.318-0.809-0.48-1.21
		c0.699-0.324,1.315-0.792,2.099-0.964c1.104-0.242,2.091-0.077,3,0.581c0.152,0.108,0.287,0.241,0.495,0.214
		c0.065,0.008,0.13,0.016,0.195,0.021c0.08,0.142,0.105,0.295,0.097,0.45c-0.123,2.675,0.277,5.339,0.165,8.011
		c-0.055,1.283,0.23,2.537,0.214,3.812c0.02,0.115,0.014,0.226-0.016,0.339C149.157,317.082,149.122,317.125,149.085,317.171z"/>
	<path fill-rule="evenodd" clip-rule="evenodd" fill="#E9CAAD" d="M153.787,304.036c0.198,0.125,0.396,0.252,0.595,0.379
		c0.055,0.062,0.108,0.124,0.163,0.187c0.145,0.788-0.124,1.46-0.584,2.078c-0.377,0.04-0.461,0.367-0.613,0.629
		c-1.164,2.012-2.293,4.046-3.496,6.033c-0.173,0.285-0.269,0.943-0.883,0.44c-0.066-0.756-0.039-1.511-0.018-2.267
		c1.348-2.348,2.686-4.706,4.083-7.029C153.188,304.229,153.306,303.795,153.787,304.036z"/>
	<path fill-rule="evenodd" clip-rule="evenodd" fill="#EEE3D7" d="M159.988,304.435c0.054,0.335-0.107,0.606-0.266,0.874
		c-2.437,4.077-4.874,8.153-7.315,12.23c-0.077,0.13-0.188,0.24-0.284,0.361c-0.088,0.065-0.171,0.06-0.249-0.014
		c-0.262-0.595,0.157-1.023,0.406-1.455c2.227-3.848,4.428-7.706,6.653-11.553c0.155-0.268,0.196-0.691,0.668-0.654
		C159.73,304.294,159.859,304.365,159.988,304.435z"/>
	<path fill-rule="evenodd" clip-rule="evenodd" fill="#E0CAB3" d="M157.178,303.495c0.389-0.01,0.791-0.137,1.142,0.146
		c-0.9,1.775-1.96,3.463-2.941,5.193c-1.06,1.869-2.129,3.733-3.226,5.581c-0.184,0.309-0.283,0.811-0.853,0.633
		c-0.232-0.856,0.262-1.575,0.449-2.352c0.103-0.261,0.202-0.527,0.395-0.743c1.176-1.677,2.084-3.517,3.159-5.254
		C155.954,305.647,156.492,304.527,157.178,303.495z"/>
	<path fill-rule="evenodd" clip-rule="evenodd" fill="#E8D6C2" d="M158.883,303.83c0.149,0.008,0.285,0.047,0.369,0.188
		c-0.489,1.423-1.398,2.624-2.128,3.916c-1.647,2.925-3.332,5.831-5.014,8.736c-0.188,0.323-0.359,0.654-0.661,0.893
		c-0.085,0.049-0.176,0.07-0.274,0.07c-0.205-0.027-0.353-0.13-0.435-0.322c-0.056-0.562,0.387-0.897,0.621-1.318
		c2.125-3.823,4.382-7.571,6.503-11.396c0.183-0.328,0.395-0.635,0.762-0.789C158.716,303.767,158.801,303.771,158.883,303.83z"/>
	<path fill-rule="evenodd" clip-rule="evenodd" fill="#E3D1BC" d="M158.676,303.844c-0.828,1.053-1.374,2.274-2.048,3.419
		c-0.388,0.66-0.746,1.336-1.167,1.98c-0.351,0.536-0.636,1.119-0.96,1.679c-1.055,1.808-2.041,3.656-3.084,5.473
		c-0.181,0.316-0.462,0.578-0.61,0.925c-0.065,0.077-0.148,0.121-0.248,0.135c-0.209-0.014-0.379-0.071-0.351-0.335
		c0.295-0.398,0.48-0.841,0.612-1.322c0.078-0.287,0.067-0.705,0.545-0.713c0.489-0.247,0.622-0.781,0.842-1.195
		c0.766-1.454,1.638-2.849,2.428-4.284c0.814-1.485,1.671-2.958,2.58-4.392c0.342-0.538,0.444-1.254,1.104-1.571
		c0.117,0.018,0.235,0.035,0.353,0.053c0.052,0.033,0.069,0.066,0.054,0.099C158.71,303.826,158.692,303.844,158.676,303.844z"/>
	<path fill-rule="evenodd" clip-rule="evenodd" fill="#EBDDCD" d="M151.368,317.514c1.337-2.312,2.68-4.618,4.01-6.931
		c1.068-1.857,2.126-3.721,3.183-5.584c0.198-0.351,0.395-0.701,0.691-0.98c0.149,0.014,0.276,0.062,0.35,0.206
		c-0.614,1.041-1.233,2.076-1.837,3.123c-1.07,1.85-2.131,3.702-3.192,5.559c-0.848,1.479-1.689,2.958-2.539,4.437
		c-0.099,0.173-0.102,0.355-0.104,0.544C151.589,317.991,151.454,317.791,151.368,317.514z"/>
	<path fill-rule="evenodd" clip-rule="evenodd" fill="#DBC3A7" d="M157.178,303.495c0.029,0.468-0.231,0.834-0.446,1.205
		c-1.327,2.31-2.671,4.607-4.006,6.915c-0.11,0.19-0.205,0.383-0.423,0.472c-0.105-0.087-0.127-0.202-0.116-0.329
		c0.029-0.16,0.073-0.317,0.101-0.478c0.02-0.122,0.047-0.244,0.079-0.364c0.031-0.125,0.062-0.251,0.09-0.377
		c0.265-0.758,0.312-1.599,0.869-2.241c0.107-0.062,0.152,0.21,0.229,0.075c0.912-1.594,1.622-3.313,2.868-4.706
		C156.659,303.539,156.9,303.438,157.178,303.495z"/>
	<path fill-rule="evenodd" clip-rule="evenodd" fill="#D8BEA0" d="M156.422,303.667c-0.767,1.362-1.533,2.728-2.307,4.085
		c-0.151,0.268-0.305,0.55-0.521,0.758c-0.16,0.154-0.13-0.088-0.167-0.171c-0.104-0.079-0.125-0.19-0.114-0.312
		c0.028-0.149,0.083-0.293,0.123-0.439c0.018-0.075,0.042-0.145,0.066-0.217c0.051-0.14,0.087-0.284,0.122-0.432
		c0.03-0.114,0.078-0.216,0.178-0.285c0.443-0.614,0.447-1.385,0.742-2.053C155.137,304.221,155.709,303.803,156.422,303.667z"/>
	<path fill-rule="evenodd" clip-rule="evenodd" fill="#FABC6B" d="M154.935,235.64c0.053-0.002,0.106-0.01,0.159-0.02
		c-0.021,0.575,0.175,1.174-0.169,1.719C154.929,236.771,154.931,236.207,154.935,235.64z"/>
	<path fill-rule="evenodd" clip-rule="evenodd" fill="#E0CAB3" d="M158.676,303.844c-0.002-0.049-0.004-0.099-0.004-0.149
		c0.069,0.047,0.139,0.09,0.211,0.136C158.812,303.834,158.743,303.84,158.676,303.844z"/>
	<path fill-rule="evenodd" clip-rule="evenodd" fill="#E6C4A4" d="M153.787,304.036c-0.587,0.181-0.685,0.771-0.94,1.199
		c-1.081,1.819-2.109,3.668-3.15,5.51c-0.143,0.252-0.314,0.464-0.576,0.593c-0.336-0.966-0.188-1.962-0.204-2.947
		c1.092-1.596,1.848-3.399,3.017-4.951C152.621,303.422,153.254,303.574,153.787,304.036z"/>
	<path fill-rule="evenodd" clip-rule="evenodd" fill="#E3C09E" d="M151.934,303.439c-0.09,0.678-0.555,1.172-0.865,1.736
		c-0.479,0.872-0.985,1.727-1.474,2.591c-0.111,0.194-0.212,0.384-0.474,0.384c-0.476-1.315-0.404-2.636-0.012-3.953
		C149.956,303.588,150.862,303.207,151.934,303.439z"/>
	<path fill-rule="evenodd" clip-rule="evenodd" fill="#E0B78F" d="M149.108,304.197c0.004,1.317,0.008,2.636,0.012,3.953
		c0,1.062,0,2.125,0,3.188c0,0.874,0,1.748,0,2.622c0.515,0.809,0.205,1.692,0.232,2.547c-0.028,0.179-0.094,0.339-0.241,0.455
		c-0.135-0.103-0.175-0.245-0.184-0.405c-0.097-1.7-0.227-3.397-0.192-5.105c0.042-1.982-0.294-3.954-0.183-5.94
		c0.021-0.371-0.035-0.749,0.183-1.084C148.859,304.352,148.985,304.273,149.108,304.197z"/>
	<path fill-rule="evenodd" clip-rule="evenodd" fill="#C4C3C3" d="M151.368,317.514c0.188,0.122,0.374,0.248,0.562,0.373
		c0.064,0.004,0.128,0.01,0.193,0.014c0.001,0.065,0.002,0.128,0.003,0.192c-0.942,1.592-1.883,3.183-2.938,4.966
		c-0.146-0.672-0.09-1.139-0.059-1.604c0.444-1.438,1.42-2.595,2.05-3.935C151.243,317.518,151.306,317.516,151.368,317.514z"/>
	<path fill-rule="evenodd" clip-rule="evenodd" fill="#B4B4B4" d="M151.18,317.52c0.118,0.21,0.096,0.408-0.028,0.613
		c-0.676,1.105-1.348,2.213-2.021,3.321c-0.062-0.438-0.04-0.876,0.002-1.312c0.396-0.987,0.985-1.871,1.485-2.803
		c0.062-0.006,0.126-0.012,0.19-0.018C150.932,317.387,151.056,317.454,151.18,317.52z"/>
	<path fill-rule="evenodd" clip-rule="evenodd" fill="#A8A7A8" d="M150.617,317.339c0.027,0.085,0.108,0.202,0.077,0.256
		c-0.498,0.862-0.847,1.818-1.562,2.547c0-0.438,0-0.874,0-1.312c0.265-0.571,0.48-1.161,0.744-1.734
		c0.13-0.058,0.25-0.05,0.354,0.055C150.323,317.29,150.465,317.323,150.617,317.339z"/>
	<path fill-rule="evenodd" clip-rule="evenodd" fill="#9B9A9A" d="M149.864,317.163c0.146,0.729-0.3,1.195-0.732,1.667
		c-0.015-0.554-0.031-1.106-0.047-1.659c0.026-0.028,0.053-0.054,0.08-0.079C149.417,316.935,149.653,316.935,149.864,317.163z"/>
	<path fill-rule="evenodd" clip-rule="evenodd" fill="#E8D6C2" d="M149.864,317.163c-0.233-0.024-0.467-0.048-0.7-0.071
		c-0.021-0.044-0.038-0.085-0.053-0.13c0.003-0.126,0.007-0.253,0.01-0.377c0.604-1.303,1.356-2.52,2.082-3.755
		c0.126-0.214,0.237-0.472,0.492-0.537c0.345-0.089,0.379,0.089,0.233,0.357c-0.071,0.838-0.537,1.585-0.563,2.434
		c-0.375,0.398-0.329,0.949-0.503,1.421c-0.122,0.333-0.213,0.632-0.632,0.646C150.108,317.154,149.987,317.161,149.864,317.163z"/>
	<path fill-rule="evenodd" clip-rule="evenodd" fill="#EAD0B5" d="M151.929,312.65c-0.029-0.251-0.154-0.371-0.31-0.109
		c-0.547,0.921-1.063,1.863-1.594,2.795c-0.256,0.447-0.457,0.937-0.904,1.249c0-0.877,0-1.751-0.001-2.625
		c0.096-0.075,0.225-0.133,0.283-0.231c0.777-1.339,1.547-2.679,2.312-4.023c0.581-1.023,1.147-2.052,1.726-3.076
		c0.13-0.229,0.272-0.402,0.362,0.025c-0.001,0.125-0.002,0.248-0.004,0.373c-0.116,0.097-0.069,0.275-0.183,0.375
		c-0.001,0.062-0.002,0.124-0.003,0.188c-0.119,0.098-0.072,0.276-0.185,0.377c0,0.123,0,0.247-0.001,0.372
		c-0.308,0.795-0.628,1.584-0.751,2.437c-0.07,0.053-0.119,0.129-0.185,0.188c-0.001,0.124-0.002,0.249-0.002,0.372
		c-0.121,0.097-0.073,0.275-0.185,0.376c-0.001,0.126-0.002,0.25-0.003,0.375C152.062,312.195,152.168,312.539,151.929,312.65z"/>
	<path fill-rule="evenodd" clip-rule="evenodd" fill="#E0CAB3" d="M152.306,311.712c0.001-0.153,0.033-0.295,0.185-0.376
		C152.487,311.49,152.453,311.631,152.306,311.712z"/>
	<path fill-rule="evenodd" clip-rule="evenodd" fill="#E0CAB3" d="M152.492,310.964c0.062-0.063,0.123-0.126,0.185-0.188
		C152.615,310.838,152.554,310.9,152.492,310.964z"/>
	<path fill-rule="evenodd" clip-rule="evenodd" fill="#E9CAAD" d="M153.429,307.967c0.002-0.157,0.034-0.295,0.185-0.377
		C153.612,307.744,153.579,307.884,153.429,307.967z"/>
	<path fill-rule="evenodd" clip-rule="evenodd" fill="#E9CAAD" d="M153.616,307.402c0.002-0.153,0.035-0.294,0.183-0.375
		C153.799,307.181,153.767,307.32,153.616,307.402z"/>
</g>
</svg>
