<?xml version="1.0" encoding="utf-8"?>
<!-- Generator: Adobe Illustrator 16.0.0, SVG Export Plug-In . SVG Version: 6.00 Build 0)  -->
<!DOCTYPE svg PUBLIC "-//W3C//DTD SVG 1.1//EN" "http://www.w3.org/Graphics/SVG/1.1/DTD/svg11.dtd">
<svg version="1.1" id="Layer_1" xmlns="http://www.w3.org/2000/svg" xmlns:xlink="http://www.w3.org/1999/xlink" x="0px" y="0px"
	 width="206.562px" height="6.375px" viewBox="0 0 206.562 6.375" enable-background="new 0 0 206.562 6.375" xml:space="preserve">
<g>
	<path fill="#F15B24" d="M6.417,3.188c0,1.496-1.212,2.708-2.708,2.708l0,0C2.213,5.896,1,4.684,1,3.188l0,0
		C1,1.692,2.213,0.48,3.709,0.48l0,0C5.206,0.479,6.417,1.691,6.417,3.188L6.417,3.188z"/>
	<path fill="#F15B24" d="M206.337,3.188c0,1.496-1.213,2.708-2.709,2.708l0,0c-1.496,0-2.708-1.213-2.708-2.708l0,0
		c0-1.496,1.212-2.708,2.708-2.708l0,0C205.124,0.479,206.337,1.691,206.337,3.188L206.337,3.188z"/>
	<line fill="none" stroke="#F15B24" stroke-miterlimit="10" x1="4.5" y1="3.188" x2="203.753" y2="3.188"/>
</g>
</svg>
