<?xml version="1.0" encoding="utf-8"?>
<!-- Generator: Adobe Illustrator 16.0.0, SVG Export Plug-In . SVG Version: 6.00 Build 0)  -->
<!DOCTYPE svg PUBLIC "-//W3C//DTD SVG 1.1//EN" "http://www.w3.org/Graphics/SVG/1.1/DTD/svg11.dtd">
<svg version="1.1" id="Layer_1" xmlns="http://www.w3.org/2000/svg" xmlns:xlink="http://www.w3.org/1999/xlink" x="0px" y="0px"
	 width="348.125px" height="6.375px" viewBox="-20.875 0 348.125 6.375" enable-background="new -20.875 0 348.125 6.375"
	 xml:space="preserve">
<g>
	<path fill="#F15B24" d="M-14.208,3.188c0,1.496-1.212,2.708-2.708,2.708l0,0c-1.496,0-2.709-1.213-2.709-2.708l0,0
		c0-1.496,1.213-2.708,2.709-2.708l0,0C-15.42,0.479-14.208,1.691-14.208,3.188L-14.208,3.188z"/>
	<path fill="#F15B24" d="M326.792,3.188c0,1.496-1.213,2.708-2.709,2.708l0,0c-1.496,0-2.708-1.213-2.708-2.708l0,0
		c0-1.496,1.212-2.708,2.708-2.708l0,0C325.579,0.479,326.792,1.691,326.792,3.188L326.792,3.188z"/>
	<line fill="none" stroke="#F15B24" stroke-miterlimit="10" x1="-16.125" y1="3.188" x2="324.208" y2="3.188"/>
</g>
</svg>
